<?xml version="1.0" encoding="UTF-8"?>
<svg width="94px" height="22px" viewBox="0 0 94 22" version="1.1" xmlns="http://www.w3.org/2000/svg" xmlns:xlink="http://www.w3.org/1999/xlink">
    <!-- Generator: Sketch 59.1 (86144) - https://sketch.com -->
    <title>logo</title>
    <desc>Created with Sketch.</desc>
    <g id="Page-1" stroke="none" stroke-width="1" fill="none" fill-rule="evenodd">
        <g id="Desktop-HD" transform="translate(-251.000000, -40.000000)">
            <g id="logo" transform="translate(251.000000, 40.000000)">
                <path d="M10,10.1302326 C9.61385946,9.71162581 9.19554681,9.41860549 8.7450495,9.25116279 C8.2945522,9.08372009 7.81683421,9 7.31188119,9 C6.81682921,9 6.36633866,9.08837121 5.96039604,9.26511628 C5.55445342,9.44186135 5.205447,9.71860277 4.91336634,10.0953488 C4.62128567,10.4720949 4.3960404,10.9534854 4.23762376,11.5395349 C4.07920713,12.1255843 4,12.8232518 4,13.6325581 C4,14.4325621 4.06435579,15.1116251 4.19306931,15.6697674 C4.32178282,16.2279098 4.50742453,16.679068 4.75,17.0232558 C4.99257547,17.3674436 5.28712698,17.6162783 5.63366337,17.7697674 C5.98019975,17.9232566 6.3663345,18 6.79207921,18 C7.5148551,18 8.12128468,17.8651176 8.61138614,17.5953488 C9.1014876,17.32558 9.56435426,16.9441885 10,16.4511628 L10,10.1302326 Z M14,7.10542736e-15 L14,20.7908367 L11.5336788,20.7908367 C11.0210682,20.7908367 10.6922287,20.5677313 10.5471503,20.1215139 L10.2134715,18.8665339 C9.91364272,19.1826045 9.59689286,19.4707822 9.26321244,19.7310757 C8.92953201,19.9913692 8.56925927,20.2167985 8.18238342,20.4073705 C7.79550756,20.5979425 7.37962226,20.7443554 6.93471503,20.8466135 C6.48980779,20.9488717 6.00622023,21 5.48393782,21 C4.68117042,21 3.94611733,20.837319 3.27875648,20.5119522 C2.61139563,20.1865854 2.03350849,19.7101625 1.54507772,19.0826693 C1.05664695,18.4551761 0.677030715,17.6859275 0.406217617,16.7749004 C0.135404518,15.8638733 2.84217094e-14,14.822715 2.84217094e-14,13.6513944 C2.84217094e-14,12.582332 0.152330083,11.587654 0.456994819,10.6673307 C0.761659554,9.74700735 1.19447042,8.95219458 1.75544041,8.28286853 C2.3164104,7.61354247 2.99343299,7.08831532 3.7865285,6.70717131 C4.579624,6.32602731 5.45975337,6.13545817 6.42694301,6.13545817 C7.2393823,6.13545817 7.9236587,6.25165886 8.47979275,6.48406375 C9.03592679,6.71646863 9.54127579,7.03253452 9.99585492,7.43227092 L9.99585492,7.10542736e-15 L14,7.10542736e-15 Z M23.5217391,6 C24.6425177,6 25.6618312,6.17419788 26.5797101,6.52259887 C27.4975891,6.87099986 28.2850209,7.36769922 28.942029,8.01271186 C29.5990371,8.65772451 30.1062784,9.44161497 30.4637681,10.3644068 C30.8212578,11.2871986 31,12.3276778 31,13.4858757 C31,14.6440736 30.8212578,15.6869069 30.4637681,16.6144068 C30.1062784,17.5419067 29.5990371,18.3305052 28.942029,18.980226 C28.2850209,19.6299468 27.4975891,20.1290001 26.5797101,20.4774011 C25.6618312,20.8258021 24.6425177,21 23.5217391,21 C22.3912987,21 21.3647389,20.8258021 20.442029,20.4774011 C19.5193191,20.1290001 18.7294719,19.6299468 18.0724638,18.980226 C17.4154557,18.3305052 16.9057989,17.5419067 16.5434783,16.6144068 C16.1811576,15.6869069 16,14.6440736 16,13.4858757 C16,12.3276778 16.1811576,11.2871986 16.5434783,10.3644068 C16.9057989,9.44161497 17.4154557,8.65772451 18.0724638,8.01271186 C18.7294719,7.36769922 19.5193191,6.87099986 20.442029,6.52259887 C21.3647389,6.17419788 22.3912987,6 23.5217391,6 Z M23.5224839,18 C24.7016476,18 25.5760143,17.6221058 26.1456103,16.866306 C26.7152063,16.1105063 27,14.9860971 27,13.4930448 C27,12.0092662 26.7152063,10.8894937 26.1456103,10.133694 C25.5760143,9.37789421 24.7016476,9 23.5224839,9 C22.3133416,9 21.4239857,9.37789421 20.8543897,10.133694 C20.2847937,10.8894937 20,12.0092662 20,13.4930448 C20,14.9860971 20.2847937,16.1105063 20.8543897,16.866306 C21.4239857,17.6221058 22.3133416,18 23.5224839,18 Z M46,6 L46,20.7707736 L43.5846995,20.7707736 C43.0826933,20.7707736 42.7606564,20.5415496 42.6185792,20.0830946 L42.3628415,19.0515759 C42.0692153,19.3381103 41.7661218,19.6007629 41.4535519,19.8395415 C41.140982,20.0783202 40.8071056,20.2836668 40.4519126,20.4555874 C40.0967195,20.627508 39.7131168,20.7612221 39.3010929,20.8567335 C38.889069,20.952245 38.4415325,21 37.9584699,21 C37.1628376,21 36.4548301,20.8615105 35.8344262,20.5845272 C35.2140224,20.307544 34.6954483,19.9207284 34.2786885,19.4240688 C33.8619287,18.9274092 33.5446277,18.335247 33.326776,17.6475645 C33.1089242,16.9598819 33,16.2053527 33,15.3839542 L33,6 L36.9213115,6 L36.9213115,15.3839542 C36.9213115,16.2053527 37.108377,16.8428822 37.4825137,17.2965616 C37.8566503,17.750241 38.4131111,17.9770774 39.1519126,17.9770774 C39.7012778,17.9770774 40.2174839,17.8553021 40.7005464,17.6117479 C41.183609,17.3681936 41.6429851,17.0362963 42.0786885,16.6160458 L42.0786885,6 L46,6 Z M54.1281337,21 C53.4781769,21 52.9025095,20.904183 52.4011142,20.7125461 C51.8997189,20.5209093 51.4772533,20.2474803 51.1337047,19.8922509 C50.7901561,19.5370216 50.5301773,19.1070136 50.3537604,18.602214 C50.1773436,18.0974145 50.0891365,17.5271865 50.0891365,16.8915129 L50.0891365,9.09520295 L48.7381616,9.09520295 C48.5338894,9.09520295 48.3597964,9.02976695 48.2158774,8.89889299 C48.0719584,8.76801903 48,8.57171103 48,8.3099631 L48,6.79557196 L50.2980501,6.37490775 L51.0779944,2.63099631 C51.1801305,2.21033 51.4633217,2 51.9275766,2 L53.9331476,2 L53.9331476,6.40295203 L57.637883,6.40295203 L57.637883,9.09520295 L53.9331476,9.09520295 L53.9331476,16.6391144 C53.9331476,17.0410844 54.0283185,17.3589164 54.218663,17.5926199 C54.4090075,17.8263234 54.6805925,17.9431734 55.0334262,17.9431734 C55.2191281,17.9431734 55.3769724,17.9221404 55.5069638,17.8800738 C55.6369552,17.8380072 55.7483747,17.7912672 55.8412256,17.7398524 L56.0988858,17.599631 L56.0988858,17.599631 C56.1778091,17.5575644 56.2590525,17.5365314 56.3426184,17.5365314 C56.4540396,17.5365314 56.5468891,17.5622384 56.6211699,17.6136531 C56.6954507,17.6650679 56.7697304,17.7515369 56.8440111,17.8730627 L58,19.7239852 C57.4707494,20.1446515 56.8718696,20.4624835 56.2033426,20.6774908 C55.5348156,20.892498 54.8430862,21 54.1281337,21 Z M69.0050955,9.2173095 C68.9023349,9.37723504 68.7972405,9.49247378 68.6898089,9.56302916 C68.5823774,9.63358455 68.4352451,9.66886171 68.2484076,9.66886171 C68.0615702,9.66886171 67.8700647,9.62182549 67.6738854,9.52775165 C67.477706,9.4336778 67.2581753,9.33254993 67.0152866,9.224365 C66.7723979,9.11618008 66.4944814,9.01505221 66.1815287,8.92097836 C65.8685759,8.82690452 65.5065838,8.7798683 65.0955414,8.7798683 C64.4696359,8.7798683 63.9838658,8.9092179 63.6382166,9.16792098 C63.2925673,9.42662406 63.1197452,9.76763664 63.1197452,10.190969 C63.1197452,10.4825979 63.2178334,10.7271862 63.4140127,10.9247413 C63.6101921,11.1222964 63.8694251,11.2939786 64.1917197,11.439793 C64.4334407,11.5491539 64.7001189,11.6532219 64.9917589,11.7519989 L65.2917197,11.8490122 C65.7027621,11.9760119 66.1254755,12.1147688 66.5598726,12.2652869 C66.9942697,12.4158051 67.4169831,12.5898391 67.8280255,12.7873942 C68.2390679,12.9849492 68.6057309,13.2318894 68.9280255,13.528222 C69.2503201,13.8245546 69.5095541,14.1820299 69.7057325,14.6006585 C69.9019118,15.0192871 70,15.5249265 70,16.1175917 C70,16.8231456 69.8715512,17.4745972 69.6146497,18.0719661 C69.3577482,18.6693351 68.9817435,19.1843817 68.4866242,19.6171214 C67.991505,20.0498611 67.3749506,20.3885218 66.6369427,20.6331138 C65.8989347,20.8777058 65.0488371,21 64.0866242,21 C63.591505,21 63.101064,20.9553156 62.6152866,20.8659454 C62.1295092,20.7765753 61.6670935,20.6495775 61.2280255,20.4849483 C60.7889575,20.320319 60.3779212,20.1298223 59.9949045,19.9134525 C59.6118877,19.6970826 59.2802562,19.4619016 59,19.2079022 L59.8968153,17.7544685 C59.9995759,17.5851356 60.1280247,17.4534341 60.2821656,17.3593603 C60.4363065,17.2652865 60.6348183,17.2182502 60.877707,17.2182502 C61.1112538,17.2182502 61.3261137,17.2770455 61.522293,17.3946378 L61.9457888,17.6423642 C62.0215613,17.6857424 62.0999288,17.730166 62.1808917,17.775635 C62.4237804,17.9120421 62.7110387,18.0390399 63.0426752,18.1566322 C63.3743116,18.2742245 63.7876833,18.3330198 64.2828025,18.3330198 C64.6564775,18.3330198 64.9787672,18.2906872 65.2496815,18.2060207 C65.5205958,18.1213542 65.7401265,18.0061155 65.9082803,17.860301 C66.076434,17.7144866 66.2002119,17.5498598 66.2796178,17.3664158 C66.3590238,17.1829718 66.3987261,16.9924751 66.3987261,16.79492 C66.3987261,16.475069 66.2983025,16.2140179 66.0974522,16.0117592 C65.896602,15.8095004 65.6350335,15.6331146 65.3127389,15.4825964 C65.0710179,15.3697078 64.8017124,15.2647578 64.5048175,15.1677447 L64.1987261,15.0733772 C63.7783418,14.9510812 63.3509576,14.8146762 62.9165605,14.664158 C62.4821634,14.5136399 62.0571146,14.3349023 61.6414013,14.1279398 C61.2256879,13.9209773 60.8566895,13.6599263 60.5343949,13.3447789 C60.2121003,13.0296315 59.9505318,12.6415827 59.7496815,12.1806209 C59.5488313,11.719659 59.4484076,11.159928 59.4484076,10.5014111 C59.4484076,9.89933848 59.5651793,9.32784842 59.7987261,8.7869238 C60.0322729,8.24599918 60.3825879,7.76858156 60.8496815,7.35465663 C61.3167752,6.9407317 61.898298,6.61147817 62.5942675,6.36688617 C63.290237,6.12229417 64.0959615,6 65.011465,6 C66.039071,6 66.9732442,6.16933039 67.8140127,6.50799624 C68.6547813,6.84666209 69.3460695,7.28880254 69.8878981,7.83443086 L69.0050955,9.2173095 Z M81.0050955,9.2173095 C80.9023349,9.37723504 80.7972405,9.49247378 80.6898089,9.56302916 C80.5823774,9.63358455 80.4352451,9.66886171 80.2484076,9.66886171 C80.0615702,9.66886171 79.8700647,9.62182549 79.6738854,9.52775165 C79.477706,9.4336778 79.2581753,9.33254993 79.0152866,9.224365 C78.7723979,9.11618008 78.4944814,9.01505221 78.1815287,8.92097836 C77.8685759,8.82690452 77.5065838,8.7798683 77.0955414,8.7798683 C76.4696359,8.7798683 75.9838658,8.9092179 75.6382166,9.16792098 C75.2925673,9.42662406 75.1197452,9.76763664 75.1197452,10.190969 C75.1197452,10.4825979 75.2178334,10.7271862 75.4140127,10.9247413 C75.6101921,11.1222964 75.8694251,11.2939786 76.1917197,11.439793 C76.4334407,11.5491539 76.7001189,11.6532219 76.9917589,11.7519989 L77.2917197,11.8490122 C77.7027621,11.9760119 78.1254755,12.1147688 78.5598726,12.2652869 C78.9942697,12.4158051 79.4169831,12.5898391 79.8280255,12.7873942 C80.2390679,12.9849492 80.6057309,13.2318894 80.9280255,13.528222 C81.2503201,13.8245546 81.5095541,14.1820299 81.7057325,14.6006585 C81.9019118,15.0192871 82,15.5249265 82,16.1175917 C82,16.8231456 81.8715512,17.4745972 81.6146497,18.0719661 C81.3577482,18.6693351 80.9817435,19.1843817 80.4866242,19.6171214 C79.991505,20.0498611 79.3749506,20.3885218 78.6369427,20.6331138 C77.8989347,20.8777058 77.0488371,21 76.0866242,21 C75.591505,21 75.101064,20.9553156 74.6152866,20.8659454 C74.1295092,20.7765753 73.6670935,20.6495775 73.2280255,20.4849483 C72.7889575,20.320319 72.3779212,20.1298223 71.9949045,19.9134525 C71.6118877,19.6970826 71.2802562,19.4619016 71,19.2079022 L71.8968153,17.7544685 C71.9995759,17.5851356 72.1280247,17.4534341 72.2821656,17.3593603 C72.4363065,17.2652865 72.6348183,17.2182502 72.877707,17.2182502 C73.1112538,17.2182502 73.3261137,17.2770455 73.522293,17.3946378 L73.9457888,17.6423642 C74.0215613,17.6857424 74.0999288,17.730166 74.1808917,17.775635 C74.4237804,17.9120421 74.7110387,18.0390399 75.0426752,18.1566322 C75.3743116,18.2742245 75.7876833,18.3330198 76.2828025,18.3330198 C76.6564775,18.3330198 76.9787672,18.2906872 77.2496815,18.2060207 C77.5205958,18.1213542 77.7401265,18.0061155 77.9082803,17.860301 C78.076434,17.7144866 78.2002119,17.5498598 78.2796178,17.3664158 C78.3590238,17.1829718 78.3987261,16.9924751 78.3987261,16.79492 C78.3987261,16.475069 78.2983025,16.2140179 78.0974522,16.0117592 C77.896602,15.8095004 77.6350335,15.6331146 77.3127389,15.4825964 C77.0710179,15.3697078 76.8017124,15.2647578 76.5048175,15.1677447 L76.1987261,15.0733772 C75.7783418,14.9510812 75.3509576,14.8146762 74.9165605,14.664158 C74.4821634,14.5136399 74.0571146,14.3349023 73.6414013,14.1279398 C73.2256879,13.9209773 72.8566895,13.6599263 72.5343949,13.3447789 C72.2121003,13.0296315 71.9505318,12.6415827 71.7496815,12.1806209 C71.5488313,11.719659 71.4484076,11.159928 71.4484076,10.5014111 C71.4484076,9.89933848 71.5651793,9.32784842 71.7987261,8.7869238 C72.0322729,8.24599918 72.3825879,7.76858156 72.8496815,7.35465663 C73.3167752,6.9407317 73.898298,6.61147817 74.5942675,6.36688617 C75.290237,6.12229417 76.0959615,6 77.011465,6 C78.039071,6 78.9732442,6.16933039 79.8140127,6.50799624 C80.6547813,6.84666209 81.3460695,7.28880254 81.8878981,7.83443086 L81.0050955,9.2173095 Z" id="doutss" fill="#FFFFFF" fill-rule="nonzero"></path>
                <circle id="Oval" fill="#8DF9D3" cx="89.5" cy="17.5" r="3.5"></circle>
            </g>
        </g>
    </g>
</svg>